<?xml version="1.0" encoding="UTF-8"?>
<!DOCTYPE svg PUBLIC "-//W3C//DTD SVG 1.1//EN" "http://www.w3.org/Graphics/SVG/1.1/DTD/svg11.dtd">
<svg xmlns="http://www.w3.org/2000/svg" xml:space="preserve" width="610px" height="200px" version="1.1" viewBox="0 0 511.51 167.78" xmlns:xlink="http://www.w3.org/1999/xlink">
 <g>
  <path style="fill:#f3f3f4;fill-rule:nonzero" d="M511.51 65.95l-0.84 -0.87 -1.57 -0.74 -1.76 -1.01 -1.85 -1.11c-2.13,-1.58 -5.56,-3.34 -12.22,-2.35 -10.85,1.04 -28.7,4.9 -41.11,4.12 6.98,-8.12 20.04,-13.94 30.77,-19.63 0,0 2.93,-1.82 0.99,-0.66l2.13 -1.29 2.68 -1.21c2.41,-1.2 1.49,-0.56 4.67,-3.05 3.24,-4.01 4.66,-9.57 4.66,-14.87 0,-5.82 -3.16,-23.28 -15.7,-23.28l-7.17 0c-9.91,0.28 -18.18,3.96 -25.68,8.36 -2.71,1.55 -4.16,4.65 -4.35,7.27 0.47,2.94 0.93,2.48 2.72,6.47 3.36,4.78 5.49,4.83 8.21,3.28 7.16,-8.66 14.99,-9.86 20.29,-9.86 2.59,0 8.36,0.31 7.1,6.43 0,8.02 -45.28,29.39 -58.98,50.06 -1.49,1.68 -0.84,2.6 0.38,4.53 2.72,4.14 4.53,9.31 8.14,9.31 1.69,0 3.63,-0.13 5.44,-0.26 2.33,-0.33 1.59,-0.14 4.39,-0.52 8.02,-1.16 16.81,-3.36 23.79,-4.78l3.68 -1.05c2.31,-0.36 4.72,-1.2 6.1,-1.75 0.93,-0.47 2.96,-1.39 6.48,-2.13l4.44 -1.48c2.88,-0.56 2.41,-0.56 3.99,-1.2l2.59 -0.84c1.29,-0.65 1.84,-0.37 3.97,-1.02 6.6,-0.9 11.81,-0.87 13.62,-4.87z"/>
  <polygon style="fill:#f3f3f4;fill-rule:nonzero" points="280.26,34.89 163.26,34.89 163.26,67.39 203.09,67.39 203.09,167.78 240.6,167.78 240.6,67.39 280.26,67.39 "/>
  <polygon style="fill:#f3f3f4;fill-rule:nonzero" points="37.51,34.89 0,34.89 0,167.78 37.51,167.78 37.51,80.69 73.15,124.2 108.78,80.69 108.78,167.78 146.29,167.78 146.29,34.89 108.78,34.89 73.15,80.5 "/>
  <path style="fill:#f3f3f4;fill-rule:nonzero" d="M297.22 34.89l64.85 0c16.96,0.03 50.9,7.14 50.9,45.72 0,26.58 -16.1,38.2 -31.66,42.83l31.66 44.34 -37.51 0 -29.72 -41.61 -11.01 0 0 41.61 -37.51 0 0 -41.61 0 -32.52 64.85 0 2.5 0 2.77 0c7.25,0 13.12,-5.87 13.12,-13.12 0,-7.25 -5.87,-13.14 -13.12,-13.14l-2.77 0 -2.5 0 -64.85 0 0 -32.5 0 0z"/>
 </g>
</svg>
