<?xml version="1.0" encoding="UTF-8"?>
<!DOCTYPE svg PUBLIC "-//W3C//DTD SVG 1.1//EN" "http://www.w3.org/Graphics/SVG/1.1/DTD/svg11.dtd">
<svg xmlns="http://www.w3.org/2000/svg" xml:space="preserve" width="1123px" height="602px" version="1.1" viewBox="0 0 672.93 360.48" xmlns:xlink="http://www.w3.org/1999/xlink">
 <g>
  <path style="fill:#CD981F;fill-rule:nonzero" d="M672.93 86.76l-1.1 -1.14 -2.07 -0.97 -2.31 -1.34 -2.44 -1.46c-2.8,-2.07 -7.31,-4.39 -16.07,-3.08 -14.28,1.36 -37.76,6.44 -54.08,5.42 9.18,-10.69 26.36,-18.35 40.48,-25.83 0,0 3.85,-2.4 1.3,-0.87l2.8 -1.7 3.53 -1.59c3.16,-1.58 1.95,-0.73 6.14,-4.01 4.26,-5.27 6.13,-12.59 6.13,-19.56 0,-7.66 -4.16,-30.63 -20.66,-30.63l-9.43 0c-13.03,0.37 -23.91,5.21 -33.78,11 -3.57,2.04 -5.47,6.12 -5.72,9.56 0.61,3.87 1.22,3.26 3.57,8.51 4.42,6.29 7.22,6.36 10.8,4.32 9.42,-11.39 19.73,-12.97 26.7,-12.97 3.4,0 11,0.4 9.34,8.46 0,10.55 -59.57,38.66 -77.6,65.86 -1.95,2.21 -1.1,3.42 0.51,5.95 3.57,5.45 5.95,12.25 10.71,12.25 2.22,0 4.77,-0.17 7.15,-0.34 3.06,-0.43 2.09,-0.19 5.78,-0.68 10.55,-1.53 22.11,-4.42 31.3,-6.29l4.83 -1.38c3.04,-0.48 6.21,-1.58 8.03,-2.31 1.22,-0.61 3.9,-1.83 8.53,-2.8l5.84 -1.95c3.78,-0.73 3.17,-0.73 5.24,-1.58l3.41 -1.1c1.7,-0.85 2.43,-0.49 5.23,-1.34 8.68,-1.19 15.53,-1.15 17.91,-6.41z"/>
  <path style="fill:#CD981F;fill-rule:nonzero" d="M314.94 353.05l0 -5.19 -38.89 0 0 -7.43 -7.28 0 0 20.05 7.28 0 0 -7.43 38.89 0zm-23.22 -14.66c14.16,0 24.02,-4.38 24.02,-12.69 0,-8.21 -10.06,-12.7 -24.02,-12.7 -13.95,0 -23.74,4.57 -23.74,12.7 0,8.24 9.59,12.69 23.74,12.69zm0 -5.42c-8.13,0 -16.47,-2.11 -16.47,-7.27 0,-5.16 8.34,-7.28 16.47,-7.28 8.34,0 16.74,1.97 16.74,7.28 0,5.31 -8.4,7.27 -16.74,7.27zm23.22 -29.43l0 -5.2 -38.89 0 0 -7.42 -7.28 0 0 20.04 7.28 0 0 -7.42 38.89 0zm-17.86 -27l0 7.58 -19.05 -3.75 0 -0.08 19.05 -3.75zm17.86 16.71l0 -5.38 -10.58 -2.27 0 -10.5 10.58 -2.23 0 -5.75 -46.17 10.17 0 5.86 46.17 10.1zm0 -29.47l0 -15.26 -7.27 0 0 10.06 -38.9 0 0 5.2 46.17 0z"/>
  <path style="fill:#2B2A29;fill-rule:nonzero" d="M0 285.95l7.19 0 0 -30.78 0.1 -0.11 10.08 30.89 7.19 0 10.08 -30.89 0.11 0 0 30.89 7.18 0 0 -37.43 -12.01 0 -8.9 28.36 -0.11 0 -8.9 -28.36 -12.01 0 0 37.43zm49.97 0l7.51 0 0 -37.43 -7.51 0 0 37.43zm15.18 0l7.18 0 0 -27.99 0.11 0 14.32 27.99 9.17 0 0 -37.43 -7.19 0 0 27.99 -0.1 0 -14.27 -27.99 -9.22 0 0 37.43zm38.44 0l7.51 0 0 -37.43 -7.51 0 0 37.43zm15.55 0l7.19 0 0 -30.78 0.11 -0.11 10.08 30.89 7.18 0 10.08 -30.89 0.11 0 0 30.89 7.18 0 0 -37.43 -12.01 0 -8.9 28.36 -0.1 0 -8.9 -28.36 -12.02 0 0 37.43zm49.98 0l7.5 0 0 -37.43 -7.5 0 0 37.43zm13.13 0l25.96 0 0 -5.9 -18.13 0 17.75 -25.42 0 -6.11 -24.88 0 0 5.9 16.89 0 -17.59 25.41 0 6.12zm32.23 0l22.2 0 0 -5.9 -14.69 0 0 -10.51 13.35 0 0 -5.9 -13.35 0 0 -9.22 14.58 0 0 -5.9 -22.09 0 0 37.43z"/>
  <path style="fill:#2B2A29;fill-rule:nonzero" d="M352.07 254.42l2.72 0c4.14,0 8.76,0.37 8.76,4.88 0,4.66 -4.68,5.2 -8.76,5.2l-2.72 0 0 -10.08zm-8.28 31.53l8.28 0 0 -15.55 2.66 0c3.49,0 4.56,1.07 5.74,3.86l4.97 11.69 9.23 0 -6.63 -14.64c-0.83,-1.66 -2.13,-3.7 -4.37,-3.86l0 -0.11c5.26,-0.64 8.51,-4.29 8.51,-8.69 0,-10.4 -10.58,-10.13 -19.46,-10.13l-8.93 0 0 37.43zm36.14 0l8.28 0 0 -37.43 -8.28 0 0 37.43zm40.1 -36.73c-3.02,-0.91 -6.33,-1.34 -9.88,-1.34 -7.27,0 -14.43,3.05 -14.43,11.42 0,12.38 18.1,9.43 18.1,16.57 0,3.37 -4.2,4.82 -7.33,4.82 -3.26,0 -6.51,-0.91 -9.35,-2.3l-0.77 6.75c4.08,0.91 6.09,1.45 10.59,1.45 8.34,0 15.49,-3.11 15.49,-11.31 0,-12.55 -18.09,-9.82 -18.09,-16.3 0,-4.08 3.66,-5.2 6.5,-5.2 2.9,0 5.8,0.58 8.4,1.6l0.77 -6.16zm9.93 36.73l8.29 0 0 -17.38 0.11 0 14.85 17.38 10.82 0 -17.68 -19.79 16.97 -17.64 -10.17 0 -14.9 16.09 0 -16.09 -8.29 0 0 37.43z"/>
  <path style="fill:#2B2A29;fill-rule:nonzero" d="M0 360.48l6.6 0 0 -30.78 0.1 -0.11 9.27 30.89 6.6 0 9.26 -30.89 0.1 0 0 30.89 6.61 0 0 -37.43 -11.04 0 -8.18 28.37 -0.1 0 -8.18 -28.37 -11.04 0 0 37.43zm65.15 -14.48l-10.06 0 4.98 -15.44 0.1 0 4.98 15.44zm-22.18 14.48l7.14 0 3.01 -8.58 13.95 0 2.95 8.58 7.64 0 -13.5 -37.43 -7.79 0 -13.4 37.43zm35.63 0l7.78 0 8.04 -14.59 7.93 14.59 8.13 0 -11.28 -19.47 10.34 -17.96 -7.39 0 -7.34 13.35 -7.19 -13.35 -7.99 0 10.25 17.96 -11.28 19.47zm35.77 0l6.9 0 0 -37.43 -6.9 0 0 37.43zm14.29 0l6.61 0 0 -30.78 0.09 -0.11 9.27 30.89 6.6 0 9.27 -30.89 0.09 0 0 30.89 6.61 0 0 -37.43 -11.04 0 -8.18 28.37 -0.1 0 -8.18 -28.37 -11.04 0 0 37.43zm45.93 0l6.9 0 0 -37.43 -6.9 0 0 37.43zm12.07 0l23.85 0 0 -5.9 -16.65 0 16.31 -25.42 0 -6.11 -22.87 0 0 5.9 15.53 0 -16.17 25.42 0 6.11zm29.62 0l20.4 0 0 -5.9 -13.5 0 0 -10.51 12.27 0 0 -5.9 -12.27 0 0 -9.22 13.4 0 0 -5.9 -20.3 0 0 37.43z"/>
  <path style="fill:#2B2A29;fill-rule:nonzero" d="M351.48 328.31l2.52 0c3.84,0 8.12,0.37 8.12,4.88 0,4.66 -4.33,5.2 -8.12,5.2l-2.52 0 0 -10.08zm-7.69 31.53l7.69 0 0 -15.55 2.47 0c3.23,0 4.22,1.07 5.32,3.86l4.61 11.69 8.56 0 -6.14 -14.64c-0.77,-1.67 -1.98,-3.7 -4.07,-3.86l0 -0.11c4.89,-0.65 7.91,-4.29 7.91,-8.69 0,-10.4 -9.83,-10.13 -18.06,-10.13l-8.29 0 0 37.43zm34.2 0l22.72 0 0 -5.9 -15.04 0 0 -10.51 13.67 0 0 -5.9 -13.67 0 0 -9.22 14.93 0 0 -5.9 -22.61 0 0 37.43zm37.48 0l7.69 0 0 -31.53 10.97 0 0 -5.9 -29.64 0 0 5.9 10.98 0 0 31.53zm23.27 -13.52c0,10.03 5.82,14.16 15.65,14.16 9.82,0 15.64,-4.13 15.64,-14.16l0 -23.91 -7.69 0 0 21.61c0,6.38 -2.08,10.56 -7.95,10.56 -5.88,0 -7.96,-4.18 -7.96,-10.56l0 -21.61 -7.69 0 0 23.91zm46.93 -18.01l2.52 0c3.85,0 8.13,0.37 8.13,4.88 0,4.66 -4.34,5.2 -8.13,5.2l-2.52 0 0 -10.08zm-7.68 31.53l7.68 0 0 -15.55 2.47 0c3.24,0 4.23,1.07 5.32,3.86l4.61 11.69 8.57 0 -6.15 -14.64c-0.77,-1.67 -1.98,-3.7 -4.06,-3.86l0 -0.11c4.88,-0.65 7.9,-4.29 7.9,-8.69 0,-10.4 -9.82,-10.13 -18.06,-10.13l-8.28 0 0 37.43zm33.81 0l7.35 0 0 -27.99 0.11 0 14.65 27.99 9.39 0 0 -37.43 -7.36 0 0 27.99 -0.11 0 -14.59 -27.99 -9.44 0 0 37.43z"/>
  <polygon style="fill:#CD981F;fill-rule:nonzero" points="368.7,45.9 214.78,45.9 214.78,88.66 267.18,88.66 267.18,220.73 316.53,220.73 316.53,88.66 368.7,88.66 "/>
  <polygon style="fill:#5B5B5B;fill-rule:nonzero" points="49.35,45.9 0,45.9 0,220.73 49.35,220.73 49.35,106.15 96.23,163.39 143.11,106.15 143.11,220.73 192.46,220.73 192.46,45.9 143.11,45.9 96.23,105.91 "/>
  <path style="fill:#5B5B5B;fill-rule:nonzero" d="M391.02 45.9l85.31 0c22.32,0.04 66.97,9.4 66.97,60.15 0,34.97 -21.18,50.25 -41.66,56.34l41.66 58.34 -49.35 0 -39.1 -54.75 -14.48 0 0 54.75 -49.35 0 0 -54.75 0 -42.77 85.31 0 3.29 0 3.64 0c9.54,0 17.27,-7.73 17.27,-17.27 0,-9.54 -7.73,-17.28 -17.27,-17.28l-3.64 0 -3.29 0 -85.31 0 0 -42.76z"/>
 </g>
</svg>
