<svg xmlns="http://www.w3.org/2000/svg" viewBox="0 0 1426 272"><style type="text/css">.st0{fill:#F14791;} .st5{fill:#378D44;}</style><path class="st0" d="M425.1,108.9h4.1v89.7h-10.8v-64.7L389,174.4h-1.7l-29.4-40.5v64.7h-10.8v-89.7h4.2l36.9,50.1L425.1,108.9z"/><path class="st0" d="M480.2,203c-6.9,16.5-14,33.5-34.2,24.7l1.4-7.4c11.8,5.5,16.6-2.2,20.7-12.4l3.6-8.7l-28.2-61.1v-1h10.6l12.3,27.4l10.1,24.5h0.1l9.3-24.2l11.3-27.7h10.1v1L480.2,203z"/><path class="st0" d="M592,107.7c17.5,0,34.7,8.2,39.8,26.9h-10.5c-4.7-12.9-15.9-17.2-29.3-17.2c-20.9,0-33.9,15.9-33.9,36.2c0,20.9,13.1,36.2,33.9,36.2c18.4,0,31.6-9.9,33.3-29.3h-31.9v-9.1h41.7c0.4,8.2-0.5,16.1-3.5,23.3c-6.7,16.5-21.6,25.1-39.7,25.1c-25.3,0-44.7-18.4-44.7-46.2S567,107.7,592,107.7z"/><path class="st0" d="M659.6,104.8v71.6c0,12,2.6,16.3,15.5,14.6l0.4,7.9c-18.8,3.1-26-3.5-26-22.5v-71.6H659.6z"/><path class="st0" d="M681.4,167.6c0-42.9,65-42.9,65,0C746.4,210.3,681.4,210.5,681.4,167.6z M736.4,167.6c0-31.4-44.9-31.4-44.9,0C691.5,199.1,736.4,199.1,736.4,167.6z"/><path class="st0" d="M761.5,105h10v36c6.3-3.7,12.9-5.4,19.3-5.2c15.7,0.3,29.6,11.9,29.6,32.4c0,23.3-15.7,32-33.7,32c-8.4,0-17.3-1.9-25.2-5.2V105z M771.3,188.5c5.2,1.9,10.9,3.1,16.1,2.9c12.4-0.3,23-6.8,23-23.3c0-16.1-9.7-23.8-21-23.9c-6-0.1-12.4,1.9-18.2,6v38.3H771.3z"/><path class="st0" d="M853.2,199.6c-11.4,0-21.4-6.7-21.8-19.1c-0.4-14.1,10.8-21.4,23.6-21.4c7,0,15.1,1.7,21.3,5.1v-7.6c0-10.4-11-13.2-19.5-13.2c-7,0-13.6,1.4-18.8,4.5l-1.7-7.9c6-3.1,13.8-4.6,22-4.6c14,0,27.4,5.4,27,21.5v25.7c0,6.8-0.4,10.8,7.2,9.7l0.1,6.5c-10.2,1.7-15.1-0.3-15.1-11.5C873,196,862.5,199.6,853.2,199.6z M876.1,171.8c-5.6-3.2-13.2-5-19.5-5c-8.2,0-15.7,4.5-15.4,13.3c0.4,7.8,6.8,10.9,13.7,10.9c8.1,0,19.1-4.1,21.1-13.3v-5.9H876.1z"/><path class="st0" d="M915.2,104.8v71.6c0,12,2.6,16.3,15.5,14.6l0.4,7.9c-18.8,3.1-26-3.5-26-22.5v-71.6H915.2z"/><path class="st0" d="M1024.2,160.8h-39v37.8h-10.8V109h53.3v9.5h-42.5v32.9h39V160.8z"/><path class="st0" d="M1052.2,104.8v71.6c0,12,2.6,16.3,15.5,14.6l0.4,7.9c-18.8,3.1-26-3.5-26-22.5v-71.6H1052.2z"/><path class="st0" d="M1073.9,167.6c0-42.9,65-42.9,65,0C1139,210.3,1073.9,210.5,1073.9,167.6z M1129,167.6c0-31.4-44.9-31.4-44.9,0C1084,199.1,1129,199.1,1129,167.6z"/><path class="st0" d="M1170.5,199.1l-24.1-61.1v-1.2h10.8l9.1,24.3l6.5,20h0.3l16.5-42.8h4l16.8,42.8h0.1l6.7-20c2.9-8.2,6-16.1,9-24.3h10.9v1.2l-24.3,61.1h-4.6l-16.3-41.5l-16.8,41.5H1170.5z"/><path class="st0" d="M1304.9,168.8h-49c-0.6,14.2,10.6,22.9,24.6,22.9c7,0,13.7-1.5,20.9-4.5l1.5,7.6c-7.3,3.5-15.1,5.2-22.7,5.2c-20.5,0-35-12.9-34.3-33.9c0.6-19.5,14.7-30.6,31.6-30.6C1298.5,135.6,1308.3,148.4,1304.9,168.8z M1256.2,161.1h40.2c0.6-11.6-7.9-17.7-18.9-17.7C1266.2,143.4,1257.9,150,1256.2,161.1z"/><path class="st0" d="M1350.6,134.9c5.4,0,10.2,1.5,14.5,4.6l-2.4,8.4c-4-2.6-8.3-4.1-13.1-4.1c-8.8,0-17,6.7-17,16.4v38.4h-9.9v-47.2c0-5.6-0.1-9.1-7.4-8.4l-0.1-6.7c9.6-1.7,16.4-0.6,16.8,8.8C1335.4,137.5,1342.4,134.9,1350.6,134.9z"/><path class="st0" d="M1380.7,181.2c0.6,7.8,9.3,10.9,17.7,10.9c8.6,0,17-3.6,17.4-11.1c0-7-5.9-8.6-17.3-10.2c-12.2-1.4-25.5-4-25.9-16.8s12.8-18.3,25.6-18.3c12.8,0,26,5.8,25.6,17.7h-9.6c0-6.7-7.9-9.7-16-9.7c-7.8,0-16.5,2.9-16.1,10.1c0.1,6,5.9,7.6,17.3,9.2c12.9,1.7,26.5,3.5,26.1,18.1c0,12.7-12.8,18.8-27.1,19.2c-13.4,0-26.4-4.9-27.4-18.9h9.7V181.2z"/><path fill="#B1DCF2" d="M156.8,177c0,0-31.6,8.7-69.5-9.3c-40.5-19.2-61.1-87.1-61.1-87.1s34.3-1.1,83.3,32.1C139.4,133.1,156.8,177,156.8,177z"/><path fill="#CCDC8B" d="M154.5,177.6c0,0-22.8,9.7-60.2,13.3C43.8,195.9,0.5,166,0.5,166s25.7-16.9,78.6-14.4C111.5,153.2,154.5,177.6,154.5,177.6z"/><path fill="#F7C6DD" d="M193.6,191.3c0,0-41.5,0-75.6-50.3C84.4,91.6,102.3,0.1,102.3,0.1s48.6,20,77,75.3C201.4,118.4,193.6,191.3,193.6,191.3z"/><path fill="#FFE577" d="M73.2,226.7c66.2-12.7,81.3-49.1,81.3-49.1S94.8,185.6,73.2,226.7z"/><path class="st5" d="M251.7,106c0-0.7-0.6-1.2-1.2-1.2c-6,0-34.3-1.7-44.9,0.4c-14.4,2.9-38,19.2-38,55.8v34.4v25.1v50.1c0,0.7,0.6,1.3,1.3,1.3l0,0c5.8,0,10.5-4.7,10.5-10.5v-41.6c0-0.6,0.5-1.1,1.1-1.2l31.5-4.9h0.2h0.2c11.3-2.6,21.5-10.2,28.7-20.7c3.5-5.1,6.2-10.7,8.1-16.9c1.9-6.3,2.9-12.8,2.9-19.5L251.7,106z M209.7,201.9l-29,4.4c-0.8,0.1-1.4-0.5-1.4-1.2v-9.8v-34.4c0-22.1,12.5-42.7,30.4-45.2c6.1-0.8,24.3,0.5,29,0.4c0.7,0,1.2,0.5,1.3,1.2l0.2,39c0,22.1-12.8,41.4-30.4,45.6C209.8,201.9,209.7,201.9,209.7,201.9z"/><path class="st0" d="M103.9,109.1c5.9,21.8,18.8,51.3,50.6,68.5C149.3,148.9,132.6,125.2,103.9,109.1z"/><path class="st5" d="M154.5,177.6c0,0-43-24.4-75.4-25.9c-4.8-0.2-9.3-0.3-13.6-0.2c6.5,6.8,13.9,12.3,21.8,16.4C122.3,185.6,154.5,177.6,154.5,177.6z"/><circle class="st5" cx="221.9" cy="130.4" r="7.2"/></svg>
