<svg width="22px" height="32px"  xmlns="http://www.w3.org/2000/svg" viewBox="0 0 22 32"><path fill="#d93c82" fill-rule="evenodd" clip-rule="evenodd" d="M20.448,17.013l-8.509,14.531c-0.164,0.28-0.46,0.453-0.779,0.456c-0.002,0-0.005,0-0.007,0c-0.317,0-0.612-0.167-0.779-0.443L1.642,17.166C0.568,15.391,0,13.345,0,11.25C0,5.047,4.935,0,11,0c6.065,0,11,5.046,11,11.25C22,13.284,21.463,15.276,20.448,17.013z M11,1.862c-5.054,0-9.179,4.219-9.179,9.388c0,1.747,0.485,3.451,1.379,4.928l7.939,13.084l7.736-13.211c0.845-1.445,1.298-3.106,1.298-4.801C20.173,6.081,16.055,1.862,11,1.862z M11,16.875c-3.073,0-5.5-2.543-5.5-5.625c0-3.102,2.467-5.625,5.5-5.625c3.033,0,5.5,2.523,5.5,5.625C16.5,14.298,14.111,16.875,11,16.875z M11,7.487c-2.022,0-3.679,1.695-3.679,3.763c0,2.073,1.647,3.762,3.679,3.762c2.065,0,3.673-1.72,3.673-3.762C14.673,9.182,13.022,7.487,11,7.487z"/></svg>